<svg width="75" height="75" viewBox="0 0 75 75" fill="none" xmlns="http://www.w3.org/2000/svg">
<path d="M75 22.3455V75H0V0H75V15.9565V22.3455ZM75 22.3455C74.8719 22.1855 74.7971 21.9678 74.7148 21.7796C74.4709 21.2226 74.2552 20.6295 74.0863 20.0448C73.8706 20.4837 73.6908 20.9386 73.474 21.3777C72.3454 23.6602 71.1647 25.9217 70.01 28.1916C69.701 28.799 69.3867 29.4061 69.0923 30.0206C68.8957 30.4317 68.7221 30.8668 68.4884 31.2584C68.1687 31.7944 67.7307 32.2824 67.355 32.7817C66.4735 33.9529 65.5943 35.1246 64.7066 36.2913C63.649 37.6809 62.6228 39.096 61.5824 40.4986C61.1327 41.1043 60.6603 41.6946 60.2143 42.3021C59.5371 43.225 58.8952 44.1786 58.2019 45.0883C57.7423 45.6914 57.2772 46.2627 56.6876 46.7468C56.4815 46.916 56.2559 47.0816 56.0296 47.2229C55.8131 47.3581 55.5088 47.4456 55.3587 47.6536C54.8075 48.4168 54.3582 49.2532 53.8942 50.0702C53.246 51.2121 52.6077 52.3623 51.95 53.4987C51.5365 54.2132 51.0982 54.9156 50.6792 55.6275C49.7644 57.1806 48.8797 58.7516 47.959 60.3014C47.2793 61.4451 46.5612 62.5668 45.8683 63.7024C45.438 64.4074 45.03 65.1248 44.5921 65.8261C43.3645 67.7923 42.2106 69.7995 40.9534 71.7481C40.611 72.2787 40.2755 73.0071 39.7808 73.4103C39.5548 73.5941 39.3087 73.7044 39.0231 73.7597C38.6664 73.8289 38.2965 73.8153 37.9351 73.8168C37.4132 73.8194 36.8917 73.8208 36.3704 73.8216C35.8752 73.8223 35.316 73.8732 34.8278 73.8106C34.3664 73.7513 33.9766 73.4381 33.7039 73.0785C33.3766 72.6464 33.1247 72.1546 32.8347 71.6975C32.067 70.4868 31.3283 69.263 30.5786 68.042C28.6999 64.9823 26.775 61.9497 24.9017 58.8867C23.5235 56.6331 22.1826 54.3541 20.8229 52.0895C20.6009 51.7196 19.1814 49.3707 19.2078 49.1734L34.2869 71.1164C34.415 71.2808 34.5736 71.4818 34.7861 71.5119C34.8665 71.3225 34.7023 70.812 34.6681 70.5843C34.6013 70.1389 34.5978 69.6263 34.4707 69.2003C34.3302 68.729 34.1226 68.2691 33.9703 67.7978C33.9088 67.6073 33.8418 67.4209 33.8463 67.2177C33.8513 66.9881 33.8002 66.8672 33.6759 66.6735C33.3414 66.1524 32.8471 65.7957 32.389 65.3929C32.1085 65.146 31.8471 64.8706 31.5834 64.6062C30.6365 63.6563 29.7575 62.6126 28.9724 61.5253C27.1651 59.023 25.5162 56.3822 23.9319 53.7338C23.2898 52.6608 22.6606 51.5874 21.9933 50.5291C21.681 50.0336 21.3522 49.4597 20.9716 49.0174C20.5537 48.5318 20.0193 47.9546 19.4976 47.5792C18.9402 47.1782 18.3836 46.9135 17.8914 46.4092C17.4051 45.9108 16.9618 45.3732 16.4984 44.8543C16.1264 44.4375 15.7333 44.0402 15.3609 43.6231C14.9425 43.1543 14.5455 42.6676 14.1337 42.1934C13.0153 40.9058 11.8642 39.6438 10.7554 38.3478C9.7782 37.2056 8.79423 36.0664 7.82007 34.9219C7.44394 34.48 7.0886 34.0166 6.7062 33.5811C6.08383 32.8723 5.44322 32.1718 4.80645 31.4751C4.55603 31.201 4.17385 30.9073 4.00324 30.5835C3.832 30.2586 3.82339 29.7944 3.75421 29.4362C3.62772 28.7813 3.49688 28.1247 3.34427 27.4754C3.01535 26.0759 2.65985 24.6859 2.30865 23.2919C2.06574 22.3278 1.85255 21.3497 1.51458 20.4127C1.29991 19.8176 0.983969 19.257 0.734502 18.676C0.145523 17.3042 0.0744265 15.6752 0.367544 14.2273C0.539821 13.3763 0.815658 12.5384 1.03235 11.6973C1.08197 11.5047 1.13903 11.3042 1.16601 11.1072C1.19829 10.8714 1.15963 10.5924 1.25443 10.3722L1.27517 10.3272C1.39401 10.0567 1.5408 9.86543 1.80645 9.7229C2.04086 9.59715 2.34415 9.56774 2.60216 9.50841C3.04291 9.40708 3.48118 9.29001 3.91813 9.17359C6.81544 8.40165 9.72539 7.68058 12.616 6.88404C13.0545 6.76319 13.5071 6.64124 13.9365 6.4923C14.3412 6.35186 14.7476 6.16333 15.1651 6.07317C15.6958 5.95858 16.2699 5.93548 16.8091 5.85681C18.0492 5.67591 19.2876 5.4586 20.5261 5.26692C23.5794 4.79433 26.6286 4.27617 29.6814 3.8031C31.3753 3.54061 33.0641 3.21424 34.7534 2.92419C35.2904 2.832 35.8291 2.73161 36.3648 2.63236C36.7189 2.56674 37.0646 2.47368 37.4282 2.47128C37.7652 2.46905 38.0713 2.5593 38.3972 2.61878C38.6843 2.67115 38.9762 2.72143 39.2641 2.7703C40.3092 2.94776 41.3599 3.09386 42.4072 3.25925C43.1422 3.37532 43.8721 3.53444 44.6071 3.64951C48.0733 4.19202 51.542 4.7239 55.0086 5.26033C55.9494 5.4059 56.8909 5.55905 57.8324 5.69953C58.6828 5.82642 59.5606 5.91453 60.3882 6.14986C60.8083 6.26928 61.1961 6.49373 61.596 6.66786C62.4009 7.01836 63.2084 7.36718 64.021 7.69951C65.8806 8.46025 67.7773 9.15898 69.6544 9.87781C70.3726 10.1529 71.1358 10.3608 71.8338 10.6812C71.9341 10.7272 72.0121 10.7948 72.0876 10.8733C72.5896 11.395 72.9936 12.153 73.3517 12.7808C73.7253 13.4357 74.1189 14.0813 74.4525 14.758C74.562 14.9796 74.6675 15.2064 74.7594 15.4358C74.8206 15.5884 74.8664 15.7644 74.9597 15.9006L75 15.9565V0H0V75H75V22.3455ZM28.0331 15.2161C27.9694 15.3347 27.9811 15.4163 27.9968 15.5508C28.2218 17.4702 28.5027 19.3846 28.7872 21.2952C28.9968 22.7033 29.1588 24.117 29.3722 25.5249C29.5636 26.7881 29.7331 28.0533 29.9448 29.314C30.0017 29.6528 30.0124 30.0007 30.0952 30.334L37.0397 71.5115L38.3273 71.5086C38.5587 68.9561 39.0722 66.4417 39.4014 63.9038C39.7361 61.3246 40.1642 58.7545 40.5674 56.1848C40.7439 55.0591 40.8893 53.9275 41.0618 52.8014C41.183 52.0078 41.3331 51.2154 41.447 50.421C41.577 49.5154 41.6865 48.6028 41.8272 47.699C42.1297 45.757 42.405 43.8069 42.6819 41.8605C42.7533 41.3566 42.8342 40.8534 42.9049 40.3491C42.9298 40.1712 42.9855 39.9771 42.987 39.7984C42.9873 39.7394 42.9635 39.7024 42.9383 39.6515L41.8217 37.1276L38.2123 28.8025L38.2017 28.8305C38.0969 29.0892 37.9197 29.3351 37.7747 29.5741C37.4693 30.0774 37.151 30.5668 36.8218 31.0547C36.0431 32.2092 35.2716 33.3586 34.4419 34.478C33.8224 35.3139 33.1492 36.1148 32.5174 36.943L37.3513 26.7398C36.9646 25.9188 36.5223 25.1237 36.1287 24.3047C35.406 22.8007 34.778 21.2442 34.2544 19.6598C33.9961 18.8782 33.7383 18.0966 33.6002 17.2833C33.7196 16.9894 33.8415 16.8154 34.1408 16.6886C34.2527 16.6412 34.5436 16.6876 34.6596 16.7353C34.8 16.793 34.9363 17.0059 35.0075 17.1387C35.1432 17.3919 35.2363 17.6403 35.3476 17.9026L37.5432 23.3826L38.3255 24.8055C38.9092 24.3426 39.4962 23.8852 40.0617 23.3995C41.5679 22.1055 43.0426 20.7444 44.7221 19.6708C45.3311 19.2816 45.9459 18.9975 46.6428 18.8056C46.7758 18.769 46.9025 18.7447 47.0402 18.7322C47.0574 18.7307 47.1749 18.7254 47.1812 18.7214C47.1925 18.7137 47.2837 18.3116 47.2951 18.2671C47.5518 17.2603 47.8491 16.2124 48.23 15.245C47.8037 15.146 47.2522 15.2067 46.8087 15.2063C45.9247 15.2056 45.0403 15.2055 44.1563 15.2055C40.3766 15.2054 36.5972 15.2056 32.8176 15.2061C31.6812 15.2062 30.5447 15.2061 29.4083 15.2064C29.0792 15.2065 28.7501 15.2065 28.4209 15.2073C28.2987 15.2076 28.1516 15.2294 28.0331 15.2161ZM50.2866 15.0696C50.0446 15.4497 49.9937 15.9131 49.8875 16.3439C49.4206 18.2353 49.1151 20.1512 48.7185 22.0569C48.4581 23.3065 48.1524 24.548 47.9033 25.7996C47.6895 26.8753 47.4727 27.9649 47.2229 29.0333C46.4993 32.1315 45.8331 35.2673 45.2985 38.4049C45.2406 38.744 45.2227 39.0905 45.1824 39.4318C45.0901 40.2169 44.9993 41.0036 44.8986 41.7876C44.7576 42.887 44.5694 43.9834 44.409 45.0799C44.2683 46.0423 44.1596 47.012 44.027 47.9762C43.8816 49.0353 43.6828 50.0889 43.5282 51.1469C43.058 54.3681 42.5673 57.5819 42.0597 60.798C41.71 63.0132 41.439 65.239 41.0636 67.451C41.9363 65.5518 43.1602 63.8156 44.0446 61.9186C44.4921 60.9588 44.7587 59.9993 45.0582 58.9878C45.427 57.6771 45.9719 56.3504 46.5626 55.1232C46.6612 54.9188 46.8512 54.7658 46.9959 54.5926C47.4822 54.0092 47.9729 53.4309 48.4662 52.8534C49.9245 51.1476 51.352 49.4132 52.7439 47.6529C53.2801 46.9746 53.903 46.3261 54.3662 45.5958C54.6662 45.1231 54.9002 44.5807 55.1507 44.079C55.7113 42.9551 56.246 41.8206 56.7906 40.6886C58.0159 38.1409 59.2295 35.5899 60.4314 33.0311C61.1748 31.448 61.8889 29.85 62.6752 28.2871C60.9437 26.4826 59.2266 24.6672 57.5072 22.8509C57.1736 22.4984 56.8209 22.1642 56.4895 21.8094C55.4865 20.7363 54.52 19.6296 53.517 18.5562C53.0211 18.0256 52.5425 17.4769 52.0445 16.9492C51.7921 16.6816 51.52 16.4317 51.2761 16.1564C50.9704 15.8119 50.7158 15.3543 50.3687 15.0639L50.2866 15.0696ZM3.27642 11.7371C3.28496 11.9094 3.28998 12.0378 3.36807 12.1948L3.6809 12.8325L6.90209 18.9009C7.13057 19.3987 7.44621 19.8685 7.69062 20.3613C8.41462 21.8212 9.20369 23.2522 9.97976 24.685C10.1069 24.9197 10.2122 25.1746 10.3307 25.415C10.3852 25.5255 10.4296 25.6615 10.5139 25.7505C11.1304 25.3172 11.7176 24.8349 12.3179 24.3788C13.4418 23.5248 14.5717 22.6786 15.6962 21.8255C16.8281 20.9669 17.9472 20.1083 19.1989 19.4261C19.4266 19.302 19.6622 19.1465 19.9036 19.0531C20.047 18.9976 20.2284 18.9865 20.3796 19.0082C20.6211 19.0429 20.8131 19.1917 20.9452 19.3909C21.0663 19.5733 21.1697 19.8742 21.1226 20.0936C21.0954 20.2201 20.9996 20.3276 20.9048 20.4107C20.6471 20.6366 20.345 20.8291 20.0726 21.0389C19.4188 21.5427 18.7647 22.0454 18.1049 22.5413C17.4874 23.0053 16.8935 23.5058 16.2781 23.974C15.5168 24.5532 14.7449 25.1237 13.9777 25.6954C13.5152 26.04 13.0423 26.3684 12.5826 26.7182C12.3647 26.884 12.1426 27.036 11.9565 27.2387L28.7504 36.15L28.1192 31.9726L25.8108 15.2475L25.1354 15.2776C24.8432 16 24.5067 16.8179 24.4393 17.6021C24.3845 18.2394 24.477 18.8674 24.5524 19.4979C24.6381 20.2142 24.7302 20.93 24.8325 21.6431C24.9314 22.3322 24.9828 23.0276 25.0576 23.7194C25.1218 24.3123 25.2126 24.9085 25.2769 25.5025C25.3079 25.7898 25.3049 26.082 25.3422 26.3672C25.3697 26.578 25.4192 26.7841 25.4413 26.9966C25.5211 27.7678 25.5727 28.5447 25.6468 29.3172C25.7256 30.1398 25.8157 30.9623 25.8851 31.7872C25.9301 32.3224 25.9807 32.8566 25.9558 33.3939C25.721 32.1358 25.4192 30.8606 25.0794 29.6265C24.8905 28.9403 24.6734 28.2604 24.4947 27.5716C24.0319 25.788 23.6438 23.962 23.2727 22.1565C22.9907 20.7845 22.6231 19.4528 22.6733 18.039C22.708 17.0622 23.0814 15.8553 23.5948 15.0222C21.0889 14.637 18.5783 14.2715 16.0767 13.8566C14.1342 13.5344 12.1952 13.1852 10.2539 12.854C8.60904 12.5735 6.97423 12.2142 5.32592 11.957C4.92532 11.8945 4.52432 11.8475 4.12277 11.7934C3.89268 11.7623 3.50006 11.6661 3.27642 11.7371ZM12.4429 29.8645C14.5333 34.2503 16.6602 38.6257 18.7593 43.0082C19.0368 43.5875 19.2937 44.1691 19.5374 44.7627C19.7202 45.208 19.7933 45.7072 20.0259 46.1298C20.2519 46.5407 20.6797 46.8831 21.0264 47.1896C21.2632 47.3987 21.4866 47.6276 21.7009 47.8598C22.2921 48.4999 22.7507 49.2777 23.2489 49.9882C24.6411 51.9738 26.0019 53.9839 27.3866 55.9754C27.8713 56.6726 28.3449 57.3783 28.8257 58.0789C29.0593 58.4191 29.2745 58.7765 29.546 59.0882C29.5232 58.6835 29.3846 58.2656 29.3125 57.8646C29.0803 56.5749 28.8189 55.2895 28.6015 53.9978C28.2065 51.6519 27.8578 49.3048 27.5253 46.9494C27.3656 45.8174 27.1547 44.6924 26.9904 43.5608C26.787 42.1593 26.598 40.7523 26.4047 39.3494C26.3505 38.9553 26.296 38.5551 26.2575 38.1592C26.2331 37.9091 26.2091 37.6582 26.187 37.4081C26.1759 37.2814 26.1831 37.1129 26.1296 36.9972C25.2124 36.6079 24.3125 36.0998 23.4303 35.635C22.2711 35.0242 21.1111 34.4235 19.9608 33.795C17.7506 32.5873 15.5018 31.4216 13.2568 30.2795C13.0761 30.1877 12.6072 29.8638 12.4429 29.8645ZM69.5054 13.2385C68.0823 13.3462 66.6856 13.5454 65.272 13.7289C63.8354 13.9153 62.3961 14.0686 60.9558 14.2234C60.338 14.2897 59.7221 14.3864 59.1039 14.4512C57.3747 14.6324 55.6447 14.8104 53.9147 14.9804C53.7287 14.9987 53.5426 15.015 53.3555 15.016C53.2687 15.0165 53.1273 14.9971 53.0493 15.0246L58.533 20.9582L63.5867 26.2825L63.5977 26.253C63.9998 25.2124 64.5275 24.191 64.9922 23.175C65.9473 21.0863 66.9002 18.9962 67.8941 16.9254C68.3511 15.9733 68.8037 15.0168 69.2395 14.0549C69.3512 13.8091 69.5303 13.5184 69.5907 13.2569L69.5054 13.2385ZM71.647 14.0076C71.3273 14.6674 71.0622 15.3541 70.7714 16.027C70.533 16.5797 70.269 17.1229 70.017 17.6697C69.4772 18.8399 68.9466 20.016 68.3947 21.1804C68.1123 21.7761 67.8054 22.3609 67.533 22.9614C66.3472 25.5736 65.1596 28.1855 63.9221 30.7734C63.6742 31.2919 63.4036 31.8 63.1553 32.3181C62.1376 34.4421 61.1968 36.6061 60.1725 38.7268C59.7763 39.5475 59.4126 40.3869 59.0094 41.2028C58.8274 41.5712 58.6403 41.9367 58.459 42.3054C58.3429 42.5409 58.2067 42.7676 58.1195 43.0163L58.8131 42.0905C60.1494 40.2982 61.492 38.5126 62.8396 36.7288C63.2736 36.1548 63.6881 35.5655 64.1287 34.9958C64.9534 33.929 65.7598 32.848 66.5772 31.7752C66.8654 31.3967 67.2353 31.0329 67.4967 30.6432C67.6081 30.4775 67.6853 30.2679 67.7655 30.0852C67.9354 29.6976 68.0904 29.3038 68.2599 28.9161C68.8971 27.4576 69.5336 25.9972 70.1763 24.5412C70.7318 23.2833 71.317 22.0268 71.9162 20.789C72.367 19.8567 72.8507 18.9384 73.2159 17.9679C73.1104 17.46 73.0089 16.9417 72.8463 16.4485C72.6449 15.8391 72.3699 15.2647 72.0747 14.6962C71.9535 14.4627 71.7935 14.2491 71.6748 14.0191L71.647 14.0076ZM37.4755 4.81568L37.4535 4.84153L29.8717 12.8486C30.2579 12.9287 30.6752 12.9143 31.0681 12.9167C31.662 12.9203 32.2559 12.9183 32.8498 12.9179C34.7809 12.9166 36.7119 12.916 38.643 12.9163L46.1726 12.8933L37.6282 4.908C37.5777 4.8657 37.544 4.81146 37.4755 4.81568ZM2.74266 15.4358C2.75794 15.9109 2.86647 16.333 2.93681 16.7972L5.4304 27.1235C5.4753 27.4046 5.55575 27.6952 5.6146 27.9756C5.67792 28.2774 5.71018 28.5845 5.77324 28.8863C5.79983 29.0136 5.78192 29.3439 5.83495 29.4341C5.93767 29.6087 6.22343 29.8227 6.37112 29.9759C6.65318 30.2685 6.9245 30.5793 7.19817 30.8807C8.28534 32.078 9.3423 33.3073 10.3937 34.5355C11.8304 36.2138 13.1429 38.005 14.5283 39.7277C15.0002 40.3143 15.4116 40.9746 15.9602 41.4954L16.0106 41.51L2.79225 15.4499L2.74266 15.4358ZM46.8366 20.1599C46.1034 20.6574 45.4365 21.2124 44.7612 21.7834C43.986 22.4387 43.2206 23.1027 42.4754 23.7926C41.74 24.473 41.0134 25.1434 40.2268 25.7654C39.9613 25.9753 39.7039 26.1982 39.4193 26.3824L40.8681 29.6061L42.3421 33.0226L42.7119 33.8669L43.2272 35.1198C43.2997 35.3379 43.4162 35.6837 43.5575 35.8628C43.6172 35.2327 43.7542 34.6194 43.8838 34.0012C44.057 33.1758 44.2339 32.3508 44.4049 31.525C44.8634 29.3067 45.3318 27.0889 45.8331 24.8797C46.1895 23.3086 46.5773 21.7436 46.9105 20.1668L46.8366 20.1599ZM60.3911 8.44117L53.1669 12.8562C54.5706 12.8438 56.0061 12.6471 57.4043 12.5103C57.909 12.461 58.4107 12.3989 58.9146 12.3478C59.25 12.3137 59.5891 12.3115 59.9206 12.2444L67.6703 11.359C66.8998 10.9851 66.041 10.7273 65.2379 10.4267C64.2371 10.052 63.2454 9.63205 62.2581 9.22244C61.8142 9.03838 61.3766 8.84392 60.9375 8.64866C60.7899 8.58296 60.5497 8.43542 60.3911 8.44117ZM28.428 38.1043C28.5026 38.499 28.5266 38.9019 28.5834 39.2988C28.6384 39.6823 28.7314 40.0646 28.7879 40.448C28.8867 41.1178 28.9845 41.7883 29.079 42.4589C29.213 43.4092 29.2993 44.3709 29.4597 45.3186C29.5696 45.9683 29.6382 46.6271 29.7493 47.2746C29.8705 47.981 30.0095 48.6856 30.1117 49.3946C30.1897 49.9354 30.2394 50.495 30.3382 51.0315C30.51 51.9646 30.6496 52.9029 30.8365 53.833C30.8774 54.0366 30.8784 54.249 30.9204 54.4512C30.9954 54.8126 31.0749 55.1767 31.1377 55.5407C31.4205 57.1817 31.638 58.8358 32.0092 60.4614C32.1117 60.9104 32.1337 61.4 32.2715 61.8384C32.3928 62.224 32.4691 62.9074 32.2978 63.2813C32.4863 63.6266 32.8511 63.9152 33.1102 64.2085L33.5406 64.6179C33.6147 64.5308 33.5812 64.4143 33.5725 64.303C33.5497 64.0086 33.4754 63.72 33.4364 63.4278C33.2765 62.2284 33.0481 61.0496 32.8495 59.8572C32.5459 58.0353 32.2697 56.2064 31.9792 54.3823C31.6801 52.5041 31.3766 50.6228 31.0404 48.7504C30.8205 47.5258 30.5642 46.3067 30.3531 45.0799C30.1159 43.7003 29.8679 42.323 29.6375 40.9424C29.524 40.2627 29.4461 39.5629 29.2929 38.8916C29.2482 38.6957 29.2135 38.6137 29.0603 38.4818C28.8818 38.3288 28.6656 38.2273 28.4708 38.0966L28.428 38.1043ZM26.3093 6.39038L17.9896 7.83362L20.8773 9.5357L25.8834 12.2836C25.9817 11.0513 25.9992 9.812 26.1292 8.58179C26.1574 8.31446 26.4194 6.5005 26.363 6.38657L26.3093 6.39038ZM49.069 6.427C49.0749 6.80585 49.2166 7.24062 49.2946 7.61719C49.44 8.31695 49.5121 9.04464 49.6688 9.74099C49.7772 10.2225 49.8556 10.7152 49.9695 11.1944C50.0116 11.3718 50.0739 11.5296 50.0955 11.7144C50.1134 11.8678 50.1845 12.0013 50.2321 12.1463L55.0855 9.37105L57.7822 7.81128C56.1369 7.43837 54.4754 7.23479 52.8113 6.97632C51.8683 6.82987 50.9308 6.66339 49.9853 6.53365C49.7165 6.49677 49.3341 6.38994 49.069 6.427ZM15.0081 8.3313L7.97198 10.408C8.23982 10.5166 8.56447 10.5424 8.84828 10.5909C9.45575 10.6947 10.0658 10.7828 10.6759 10.869C11.7587 11.0219 12.8455 11.2259 13.9225 11.4129C14.5235 11.5172 15.1266 11.6203 15.7288 11.718C15.9454 11.7531 16.1607 11.7696 16.3755 11.818L22.4677 12.8659C21.4913 12.2545 20.505 11.6554 19.5074 11.0788C18.5851 10.5457 17.6467 10.0338 16.7436 9.46791C16.3175 9.20087 15.9038 8.92896 15.4941 8.63687C15.3713 8.54934 15.1532 8.33991 15.0081 8.3313ZM40.756 5.14527C42.4739 6.90187 44.3463 8.51335 46.1851 10.1396C46.5015 10.4194 47.5518 11.4724 47.8979 11.554L46.9574 6.15341C46.8985 6.11664 46.8886 6.11887 46.8216 6.1117C46.2825 6.05398 45.7266 5.91911 45.1904 5.8273C44.1603 5.65086 43.1269 5.50269 42.096 5.33346C41.7722 5.28036 41.4522 5.221 41.127 5.17665C41.0069 5.16028 40.8739 5.11721 40.756 5.14527ZM34.1934 5.14409L28.5006 6.08881L28.0576 11.7371C28.1447 11.7234 28.1099 11.7418 28.1665 11.6915C28.739 11.2304 29.2236 10.6727 29.728 10.1406C30.794 9.01601 31.8187 7.86365 32.8569 6.7132C33.1948 6.33889 33.5333 5.96895 33.8832 5.60574C34.0279 5.45563 34.1817 5.26187 34.3542 5.14527C34.2769 5.11374 34.2713 5.12681 34.1934 5.14409Z" fill="white"/>
<path d="M19.3965 35.5996L19.6552 35.621C19.9039 35.6596 20.119 35.8315 20.2836 36.0134C20.9993 36.8039 21.5208 37.8571 22.0831 38.7616C23.0733 40.3546 24.0817 41.9429 24.9207 43.6242C25.227 44.2376 25.5256 44.8546 25.8282 45.4702C26.0631 45.9478 26.2524 46.3806 26.5737 46.8106C26.4068 46.7274 26.2942 46.5766 26.1718 46.4396C25.5272 45.7226 24.8387 45.0421 24.2129 44.3075C22.9302 42.802 21.7667 41.2229 20.6238 39.6112C20.2141 39.0337 19.8086 38.4437 19.4339 37.8424C19.2809 37.5967 19.1126 37.3576 18.9872 37.0961L18.8063 36.6911C18.729 36.4641 18.7202 36.1995 18.8372 35.9841C18.9583 35.7611 19.1637 35.6641 19.3965 35.5996Z" fill="white"/>
<path d="M57.6897 30.9098C57.7886 30.9065 57.8908 30.9012 57.9889 30.9161C58.2244 30.9519 58.4544 31.1167 58.5844 31.3128C58.6814 31.4597 58.7924 31.8425 58.7294 32.0073L58.7034 32.0534C58.5188 32.3996 58.1998 32.6289 57.9021 32.8735C57.5996 33.1216 57.3026 33.3761 57.0009 33.625C55.5056 34.8584 53.9558 36.0187 52.4104 37.1873C51.4107 37.9427 50.4219 38.7213 49.3991 39.4453C48.3114 40.2155 47.1879 40.9303 46.087 41.6796L45.4103 42.1205L45.3718 42.0959C46.2053 41.4452 46.9004 40.6893 47.6471 39.9499C48.248 39.3549 48.8768 38.7825 49.4858 38.1943C50.1589 37.5443 50.8588 36.9239 51.5454 36.2886C52.7144 35.2067 53.8763 34.1262 55.0596 33.0595C55.5243 32.6405 55.9846 32.2174 56.4552 31.8048C56.8401 31.467 57.2096 31.1062 57.6897 30.9098Z" fill="white"/>
</svg>
