<svg width="190" height="190" viewBox="0 0 190 190" fill="none" xmlns="http://www.w3.org/2000/svg">
<path d="M37.2931 151.137C32.929 143.801 32.7564 134.941 36.8329 127.441L76.5715 54.2854H100.18L122.346 94.781L134.247 88.2664L115.648 54.2854H122.146V40.7145H115.95L128.929 13.5708H47.5L61.6628 40.7145H54.2854V54.2854H61.121L24.9022 120.96C18.5213 132.712 18.7922 146.586 25.6277 158.077C32.4633 169.567 44.5275 176.429 57.8962 176.429H74.4655V162.858H57.8962C49.361 162.856 41.6571 158.477 37.2931 151.137ZM69.8899 27.1436H107.396L100.906 40.7145H76.9723L69.8899 27.1436Z" fill="white"/>
<path d="M169.644 135.715V101.785H88.2164V122.142H74.6455V156.071H88.2164V176.427H169.644V142.5H156.073V135.715H169.644ZM156.073 115.356V122.142H149.287V115.356H156.073ZM101.787 115.356H135.716V122.142H101.787V115.356ZM88.2164 135.715H122.146V142.5H88.2164V135.715ZM101.787 162.856V156.071H135.715V162.856H101.787ZM156.073 162.856H149.287V156.071H156.073V162.856ZM135.716 142.5V135.715H142.502V142.5H135.716Z" fill="white"/>
</svg>
