<svg width="190" height="190" viewBox="0 0 190 190" fill="none" xmlns="http://www.w3.org/2000/svg">
<path d="M125.548 139.127C125.548 140.926 126.263 142.652 127.536 143.925C128.808 145.197 130.534 145.912 132.334 145.912C134.133 145.912 135.859 145.197 137.132 143.925C138.404 142.652 139.119 140.926 139.119 139.127C139.119 137.327 138.404 135.601 137.132 134.329C135.859 133.056 134.133 132.341 132.334 132.341C130.534 132.341 128.808 133.056 127.536 134.329C126.263 135.601 125.548 137.327 125.548 139.127Z" fill="white"/>
<path d="M27.138 145.862C27.138 140.257 31.7006 135.694 37.306 135.694H81.379V122.123H57.6995C52.0941 122.123 47.5315 117.561 47.5315 111.955C47.5315 106.346 52.0941 101.784 57.6995 101.784H95.0204V88.2126H37.28C31.6747 88.2126 27.1121 83.65 27.1121 78.0447C27.1121 72.4393 31.6747 67.8767 37.28 67.8767H132.354C145.448 67.8767 156.104 57.2207 156.104 44.1267C156.104 31.0327 145.448 20.3767 132.354 20.3767H57.7106C44.6166 20.3767 33.9606 31.0327 33.9606 44.1267C33.9606 47.8191 34.8809 51.274 36.3913 54.3949C23.7203 54.8736 13.5393 65.2586 13.5393 78.0447C13.5393 90.8307 23.7166 101.214 36.3875 101.694C34.8791 104.814 33.9606 108.267 33.9606 111.957C33.9606 115.648 34.8791 119.101 36.3875 122.218C23.7314 122.713 13.5653 133.089 13.5653 145.866C13.5653 158.956 24.2138 169.606 37.306 169.606H81.4699V156.036H37.306C31.7006 156.032 27.138 151.469 27.138 145.862ZM57.7106 33.9458H132.354C137.967 33.9458 142.533 38.5121 142.533 44.1249C142.533 49.7376 137.967 54.304 132.354 54.304H57.7106C52.0978 54.304 47.5315 49.7376 47.5315 44.1249C47.5315 38.5121 52.0978 33.9458 57.7106 33.9458Z" fill="white"/>
<path d="M162.86 108.597V105.187C162.86 88.3222 149.189 74.6511 132.325 74.6511C115.46 74.6511 101.789 88.3222 101.789 105.187V108.597H88.2275V169.653H176.442V108.597H162.86ZM115.36 105.188C115.36 95.835 122.971 88.2239 132.325 88.2239C141.678 88.2239 149.289 95.835 149.289 105.188V108.582H115.36V105.188ZM162.869 156.084H101.798V122.17H162.869V156.084Z" fill="white"/>
</svg>
