<svg width="190" height="190" viewBox="0 0 190 190" fill="none" xmlns="http://www.w3.org/2000/svg">
<g clip-path="url(#clip0_50_317)">
<path d="M187.68 129.239C186.196 127.755 184.183 126.922 182.083 126.922C179.984 126.922 177.971 127.755 176.486 129.239L131.939 173.794L110.659 152.792C109.189 151.285 107.181 150.424 105.077 150.398C102.972 150.372 100.944 151.183 99.4373 152.653C97.9308 154.123 97.0699 156.131 97.0439 158.235C97.0179 160.34 97.829 162.368 99.2988 163.875L121.022 185.25C122.385 186.719 124.031 187.897 125.86 188.713C127.69 189.53 129.667 189.967 131.67 190H131.931C133.895 190.006 135.841 189.623 137.655 188.871C139.469 188.12 141.116 187.015 142.5 185.622L187.68 140.434C189.165 138.949 189.998 136.936 189.998 134.837C189.998 132.737 189.165 130.724 187.68 129.239ZM87.7958 173.842C72.5091 172.445 57.9581 166.634 45.9145 157.116C33.8708 147.599 24.854 134.785 19.9617 120.235C15.0693 105.685 14.5126 90.0264 18.3592 75.1658C22.2058 60.3051 30.2898 46.8832 41.6271 36.5342C52.9644 26.1852 67.0658 19.3554 82.2148 16.8763C97.3637 14.3973 112.907 16.3759 126.951 22.5712C140.996 28.7666 152.937 38.9115 161.32 51.7709C169.702 64.6303 174.166 79.6494 174.167 94.9999C174.167 97.4303 174.048 99.837 173.842 102.212C173.745 103.25 173.854 104.297 174.163 105.293C174.472 106.288 174.974 107.213 175.641 108.014C176.309 108.815 177.127 109.477 178.051 109.96C178.974 110.444 179.984 110.741 181.022 110.833C182.06 110.938 183.108 110.834 184.105 110.527C185.102 110.221 186.028 109.719 186.828 109.05C187.628 108.381 188.287 107.559 188.765 106.632C189.243 105.706 189.531 104.693 189.612 103.653C189.865 100.779 190 97.9053 190 94.9999C189.999 76.5787 184.642 58.5551 174.582 43.1235C164.522 27.6919 150.192 15.518 133.338 8.084C116.483 0.65 97.831 -1.72341 79.6518 1.25272C61.4726 4.22886 44.5508 12.4262 30.9466 24.8466C17.3424 37.267 7.64274 53.3748 3.02853 71.2087C-1.58568 89.0427 -0.915386 107.833 4.95781 125.293C10.831 142.753 21.6537 158.129 36.1083 169.548C50.5629 180.968 68.0258 187.939 86.3708 189.612C86.6163 189.612 86.8538 189.612 87.0913 189.612C89.1909 189.705 91.2416 188.961 92.7924 187.542C94.3431 186.124 95.2668 184.147 95.3602 182.048C95.4536 179.948 94.7092 177.897 93.2906 176.346C91.872 174.796 89.8955 173.872 87.7958 173.779V173.842ZM87.0833 55.4166V91.7224L65.6529 113.153C64.8968 113.883 64.2937 114.757 63.8788 115.723C63.4639 116.688 63.2455 117.727 63.2364 118.778C63.2272 119.83 63.4275 120.872 63.8256 121.845C64.2236 122.818 64.8115 123.702 65.5548 124.445C66.2981 125.188 67.182 125.776 68.155 126.174C69.1279 126.572 70.1703 126.773 71.2215 126.764C72.2727 126.754 73.3115 126.536 74.2774 126.121C75.2432 125.706 76.1168 125.103 76.8471 124.347L100.597 100.597C102.082 99.1127 102.916 97.0993 102.917 94.9999V55.4166C102.917 53.3169 102.083 51.3033 100.598 49.8186C99.1133 48.334 97.0996 47.4999 95 47.4999C92.9004 47.4999 90.8867 48.334 89.4021 49.8186C87.9174 51.3033 87.0833 53.3169 87.0833 55.4166Z" fill="white"/>
</g>
<defs>
<clipPath id="clip0_50_317">
<rect width="190" height="190" fill="white"/>
</clipPath>
</defs>
</svg>
